<svg width="218" height="40" viewBox="0 0 218 40" xmlns="http://www.w3.org/2000/svg" fill="none">
  <g id="logomark">
    <path fill="#2C4CFD" d="M20 0C17.3922 1.99605e-07 15.1183 1.45568 13.5342 3.63379C13.4379 3.76624 13.3435 3.90193 13.252 4.04004C13.156 4.02057 13.0605 4.00028 12.9648 3.9834C10.312 3.51529 7.67909 4.03688 5.85742 5.8584C4.03613 7.68009 3.5143 10.3131 3.98242 12.9658C3.99931 13.0615 4.02057 13.157 4.04004 13.2529C3.90199 13.3444 3.76618 13.4379 3.63379 13.5342C1.45574 15.1183 0.000113546 17.3923 0 20C0.000113558 22.6077 1.45574 24.8817 3.63379 26.4658C3.76614 26.5621 3.90204 26.6556 4.04004 26.7471C4.0205 26.8433 3.99936 26.9392 3.98242 27.0352C3.51446 29.6879 4.03684 32.321 5.8584 34.1426C7.67994 35.9637 10.3124 36.4855 12.9648 36.0176C13.0606 36.0007 13.1559 35.9794 13.252 35.96C13.3436 36.0981 13.4378 36.2337 13.5342 36.3662C15.1183 38.5443 17.3922 40 20 40C22.6078 40 24.8817 38.5443 26.4658 36.3662C26.5623 36.2335 26.6573 36.0983 26.749 35.96C26.8447 35.9794 26.9398 36.0007 27.0352 36.0176C29.6878 36.4855 32.32 35.963 34.1416 34.1416C35.9629 32.3201 36.4845 29.6877 36.0166 27.0352C35.9997 26.9396 35.9794 26.8439 35.96 26.748C36.0981 26.6565 36.2337 26.5622 36.3662 26.4658C38.5443 24.8817 39.9999 22.6077 40 20C39.9999 17.3923 38.5443 15.1183 36.3662 13.5342C36.2335 13.4376 36.0974 13.3437 35.959 13.252C35.9784 13.1561 35.9987 13.0604 36.0156 12.9648C36.4837 10.3121 35.963 7.67909 34.1416 5.85742C32.3199 4.03599 29.687 3.51526 27.0342 3.9834C26.9391 4.00018 26.8444 4.02071 26.749 4.04004C26.6574 3.90177 26.5622 3.76638 26.4658 3.63379C24.8817 1.45568 22.6078 3.54835e-07 20 0ZM20 32.4355C21.4648 33.7432 23.081 34.7301 24.7168 35.3613C23.4224 37.0556 21.7516 38 20 38C18.2484 38 16.5776 37.0556 15.2832 35.3613C16.919 34.7301 18.5353 33.7432 20 32.4355ZM34.1055 27.7578C34.3801 29.8067 33.8904 31.5645 32.7275 32.7275C31.5646 33.8903 29.8075 34.379 27.7588 34.1045C28.4359 32.5708 28.8593 30.8239 28.9697 28.9688C30.825 28.8582 32.5717 28.4351 34.1055 27.7578ZM5.89551 27.7578C7.42931 28.435 9.1759 28.8583 11.0312 28.9688C11.1417 30.824 11.565 32.5707 12.2422 34.1045C10.1933 34.3792 8.43562 33.8912 7.27246 32.7285C6.10929 31.5653 5.62069 29.8071 5.89551 27.7578ZM26.4824 24.2451C26.7263 25.0959 26.8923 26.0072 26.9619 26.9619C26.3643 26.9183 25.7839 26.8363 25.2246 26.7217C24.9825 27.347 24.6924 27.9675 24.3574 28.5771C25.1934 28.7751 26.0669 28.9076 26.9668 28.9648C26.85 30.6906 26.4234 32.2773 25.7773 33.6221C24.3016 33.1061 22.796 32.2332 21.4141 31.0176C22.0976 30.246 22.6913 29.4321 23.1924 28.5967C23.6048 27.9091 23.9555 27.2068 24.2383 26.5H24.3105C24.2891 26.494 24.2675 26.4885 24.2461 26.4824C24.4704 25.9187 24.6506 25.3516 24.7891 24.7881C25.3524 24.6496 25.9189 24.4695 26.4824 24.2451ZM25.7773 6.37695C26.4236 7.72183 26.8499 9.30905 26.9668 11.0352C25.7353 11.1134 24.553 11.3307 23.4492 11.668C22.7006 11.8967 21.9887 12.1812 21.3223 12.5146C20.8835 12.7345 20.4647 12.9754 20.0684 13.2363C20.2212 16.8693 23.1315 19.7793 26.7646 19.9316C27.0574 19.4873 27.3259 19.015 27.5664 18.5176C28.2604 18.9337 28.9431 19.4287 29.5986 20C29.211 20.3378 28.8117 20.6461 28.4082 20.9297C28.7056 21.5303 28.9656 22.163 29.1836 22.8223C29.8133 22.4057 30.4279 21.9357 31.0176 21.4131C32.2334 22.7949 33.1068 24.3008 33.623 25.7764C32.2783 26.4227 30.6918 26.8489 28.9658 26.9658C28.8995 25.9239 28.733 24.9168 28.4795 23.9629C28.2325 23.0343 27.9015 22.1563 27.498 21.3457C27.2752 20.8982 27.0304 20.4709 26.7646 20.0674C23.1318 20.2197 20.2217 23.1301 20.0684 26.7627C20.5128 27.0555 20.9848 27.3248 21.4824 27.5654C21.0662 28.2597 20.5715 28.9429 20 29.5986C19.662 29.2108 19.354 28.8109 19.0703 28.4072C18.4696 28.7047 17.8371 28.9645 17.1777 29.1826C17.5945 29.8125 18.0641 30.4276 18.5869 31.0176C17.2051 32.2333 15.6991 33.1057 14.2236 33.6221C13.5775 32.2773 13.151 30.6908 13.0342 28.9648C14.2795 28.8856 15.4745 28.6642 16.5889 28.3203C17.3076 28.0986 17.9921 27.8254 18.6348 27.5068C19.0896 27.2812 19.5231 27.0324 19.9326 26.7627C19.7793 23.1308 16.8692 20.2207 13.2373 20.0674C12.9443 20.512 12.6753 20.9846 12.4346 21.4824C11.74 21.0662 11.0564 20.5717 10.4004 20C10.7887 19.6616 11.1885 19.3525 11.5928 19.0684C11.2955 18.4679 11.0353 17.8358 10.8174 17.1768C10.1874 17.5933 9.57241 18.0632 8.98242 18.5859C7.76712 17.2043 6.8941 15.699 6.37793 14.2236C7.72278 13.5774 9.30916 13.15 11.0352 13.0332C11.1134 14.2649 11.3305 15.4478 11.668 16.5518C11.8894 17.2765 12.1646 17.9663 12.4844 18.6143C12.7125 19.0762 12.9639 19.5162 13.2373 19.9316C16.8695 19.7783 19.7798 16.8687 19.9326 13.2363C19.488 12.9433 19.0155 12.6743 18.5176 12.4336C18.9337 11.7393 19.4285 11.0562 20 10.4004C20.3383 10.7885 20.6476 11.1879 20.9316 11.5918C21.5321 11.2946 22.1642 11.0343 22.8232 10.8164C22.4065 10.1863 21.936 9.57147 21.4131 8.98145C22.7952 7.76576 24.3015 6.89304 25.7773 6.37695ZM8.98145 21.4131C9.73265 22.0788 10.5236 22.6596 11.3359 23.1523C12.045 23.5826 12.77 23.9462 13.5 24.2383V24.3105C13.5059 24.2895 13.5116 24.2681 13.5176 24.2471C14.081 24.4713 14.6477 24.6506 15.2109 24.7891C15.3494 25.3523 15.5297 25.919 15.7539 26.4824C14.9036 26.7261 13.9932 26.8923 13.0391 26.9619C13.0827 26.364 13.1648 25.7832 13.2793 25.2236C12.6536 24.9814 12.0328 24.6917 11.4229 24.3564C11.2249 25.1924 11.0924 26.066 11.0352 26.9658C9.30948 26.849 7.72359 26.4224 6.37891 25.7764C6.89503 24.301 7.7661 22.7947 8.98145 21.4131ZM35.3613 15.2822C37.0558 16.5766 37.9999 18.2483 38 20C37.9999 21.7512 37.056 23.4225 35.3623 24.7168C34.731 23.0808 33.7435 21.464 32.4355 19.999C33.7431 18.5342 34.7303 16.918 35.3613 15.2822ZM4.63867 15.2832C5.26975 16.9189 6.25603 18.5353 7.56348 20C6.25593 21.4647 5.26888 23.0811 4.6377 24.7168C2.94403 23.4225 2.00011 21.7512 2 20C2.00011 18.2485 2.94453 16.5776 4.63867 15.2832ZM28.9658 13.0332C30.6914 13.1501 32.2775 13.5776 33.6221 14.2236C33.1057 15.6988 32.2329 17.2044 31.0176 18.5859C30.2719 17.9252 29.4876 17.3469 28.6816 16.8564C27.9673 16.4218 27.2357 16.056 26.5 15.7617V15.6895C26.494 15.7108 26.4885 15.7326 26.4824 15.7539C25.9193 15.5298 25.353 15.3494 24.79 15.2109C24.6516 14.6476 24.4704 14.0811 24.2461 13.5176C25.0967 13.2738 26.0075 13.1077 26.9619 13.0381C26.9183 13.6356 26.8372 14.2162 26.7227 14.7754C27.3484 15.0177 27.9691 15.3082 28.5791 15.6436C28.7771 14.8074 28.9086 13.9332 28.9658 13.0332ZM14.2236 6.37793C15.6987 6.89421 17.2045 7.76625 18.5859 8.98145C17.9251 9.7272 17.3478 10.5122 16.8574 11.3184C16.4227 12.0328 16.0561 12.7642 15.7617 13.5H15.6924C15.7125 13.5057 15.7329 13.5109 15.7529 13.5166C15.5285 14.0803 15.3485 14.6474 15.21 15.2109C14.6472 15.3493 14.0815 15.5299 13.5186 15.7539C13.2748 14.9033 13.1087 13.9925 13.0391 13.0381C13.6369 13.0817 14.2178 13.1618 14.7773 13.2764C15.0196 12.651 15.3094 12.0305 15.6445 11.4209C14.8083 11.2231 13.9342 11.0924 13.0342 11.0352C13.1511 9.30925 13.5775 7.72271 14.2236 6.37793ZM27.7578 5.89453C29.8069 5.6199 31.5645 6.10941 32.7275 7.27246C33.8902 8.43544 34.3799 10.1926 34.1055 12.2412C32.5718 11.564 30.8249 11.1418 28.9697 11.0312C28.8592 9.17566 28.4352 7.42847 27.7578 5.89453ZM7.27148 7.27246C8.43485 6.10924 10.1935 5.61945 12.2432 5.89453C11.5657 7.42854 11.1418 9.17554 11.0312 11.0312C9.17609 11.1417 7.4292 11.5641 5.89551 12.2412C5.62111 10.1927 6.10893 8.43539 7.27148 7.27246ZM20 2C21.7513 2 23.4224 2.94396 24.7168 4.6377C23.081 5.26874 21.4649 6.25592 20 7.56348C18.5354 6.25608 16.9188 5.26976 15.2832 4.63867C16.5776 2.94455 18.2485 2 20 2Z" clip-rule="evenodd" fill-rule="evenodd"></path>
  </g>
  <g id="logotype">
    <path fill="#222222" d="M89.86 32.4434C90.8 34.2056 92.6142 35.3154 94.9528 35.3154C97.2911 35.3152 99.1047 34.2055 100.045 32.4434H103.562C102.399 35.9648 99.1688 38.3191 94.9528 38.3193C90.7365 38.3193 87.5061 35.9649 86.3424 32.4434H89.86ZM141.088 13.7598C146.448 13.7598 150.204 17.4468 150.204 22.7383C150.204 28.3371 146.038 31.5127 141.634 31.5127C138.904 31.5126 136.582 30.2833 135.353 28.0986V38.2715H132.11V22.7725C132.11 17.2761 135.865 13.7598 141.088 13.7598ZM141.123 16.7637C137.675 16.7637 135.353 19.222 135.353 22.6357C135.353 26.0496 137.675 28.5078 141.123 28.5078C144.605 28.5078 146.926 26.0497 146.926 22.6357C146.926 19.2219 144.605 16.7637 141.123 16.7637ZM75.6442 13.7598C80.9698 13.7598 84.7251 17.515 84.7252 22.6357C84.7252 27.7566 80.9699 31.5127 75.6442 31.5127C70.3185 31.5127 66.5631 27.7566 66.5631 22.6357C66.5633 17.515 70.3185 13.7598 75.6442 13.7598ZM75.6442 16.7637C72.1621 16.7637 69.8406 19.2219 69.8405 22.6357C69.8405 26.0497 72.162 28.5078 75.6442 28.5078C79.1264 28.5078 81.4479 26.0497 81.4479 22.6357C81.4478 19.2219 79.1263 16.7637 75.6442 16.7637ZM95.3122 13.7676H104.133V16.668H101.859C103.237 18.2132 104.034 20.2793 104.034 22.6357C104.034 27.7565 100.278 31.5125 94.9528 31.5127C89.6271 31.5127 85.8717 27.7566 85.8717 22.6357C85.8719 17.515 89.6271 13.7598 94.9528 13.7598C95.0734 13.7598 95.1932 13.7638 95.3122 13.7676ZM94.9528 16.7637C91.4707 16.7637 89.1492 19.2219 89.1491 22.6357C89.1491 26.0497 91.4706 28.5078 94.9528 28.5078C98.4347 28.5076 100.755 26.0495 100.755 22.6357C100.755 19.2221 98.4346 16.7639 94.9528 16.7637ZM114.26 13.7598C119.586 13.7598 123.341 17.515 123.341 22.6357C123.341 27.7566 119.586 31.5127 114.26 31.5127C108.935 31.5127 105.179 27.7566 105.179 22.6357C105.179 17.515 108.935 13.7598 114.26 13.7598ZM114.26 16.7637C110.778 16.7637 108.457 19.2219 108.457 22.6357C108.457 26.0497 110.778 28.5078 114.26 28.5078C117.743 28.5078 120.064 26.0497 120.064 22.6357C120.064 19.2219 117.742 16.7637 114.26 16.7637ZM158.402 13.7598C162.431 13.7599 164.923 16.0475 164.991 18.9492H161.781C161.679 17.652 160.485 16.6954 158.437 16.6953C156.286 16.6953 155.057 17.7203 155.057 19.0518C155.057 20.6559 156.832 20.8265 158.914 21.0996C161.85 21.4751 165.434 22.0215 165.435 25.8789C165.435 29.2927 162.67 31.5125 158.437 31.5127C154.203 31.5127 151.54 29.259 151.438 26.1865H154.715C154.783 27.5862 156.081 28.5762 158.437 28.5762C160.894 28.576 162.157 27.5179 162.157 26.1865C162.157 24.582 160.382 24.3766 158.266 24.1035C155.33 23.728 151.779 23.182 151.779 19.3242C151.779 16.0128 154.374 13.7598 158.402 13.7598ZM170.569 23.0107C170.569 26.6637 172.584 28.5078 175.656 28.5078C178.729 28.5078 180.743 26.6636 180.743 23.0107V14.2031H183.986V23.0107C183.986 28.6096 180.641 31.5117 175.656 31.5117C170.672 31.5117 167.326 28.6437 167.326 23.0107V14.2031H170.569V23.0107ZM53.068 27.8594H65.5973V31.0684H49.5856V8.74121H53.068V27.8594ZM129.028 31.0684H125.785V14.2031H129.028V31.0684ZM205.346 13.7598C209.306 13.7598 212.311 16.1497 212.311 21.3047V31.0684H209.067V21.3047C209.067 18.1641 207.395 16.7638 205.039 16.7637C202.752 16.7637 201.044 18.2321 201.044 21.3047V31.0684H197.801V21.3047C197.801 18.2321 196.06 16.7637 193.773 16.7637C191.417 16.7637 189.744 18.164 189.744 21.3047V31.0684H186.501V21.3047C186.501 16.1497 189.506 13.7598 193.466 13.7598C196.06 13.7599 198.245 14.9207 199.405 17.1055C200.566 14.9206 202.717 13.7598 205.346 13.7598ZM127.389 7C128.686 7 129.643 7.95577 129.643 9.25293C129.643 10.5502 128.687 11.541 127.389 11.541C126.092 11.5409 125.136 10.5501 125.136 9.25293C125.136 7.95586 126.092 7.00013 127.389 7ZM215 8C215.588 8 216.094 8.67573 216.34 9.65918C217.324 9.90529 218 10.4124 218 11C218 11.5875 217.324 12.0937 216.34 12.3398C216.094 13.3238 215.588 14 215 14C214.413 14 213.906 13.3239 213.66 12.3398C212.676 12.0936 212 11.5874 212 11C212 10.4126 212.676 9.90537 213.66 9.65918C213.906 8.6756 214.413 8 215 8Z"></path>
  </g>
</svg>