<svg width="151" height="32" viewBox="0 0 151 32" fill="none" xmlns="http://www.w3.org/2000/svg">
<rect width="32.2667" height="31.6" rx="15.8" fill="#FF7E59"/>
<path d="M9.55692 24.6C8.69706 24.6 8 23.9029 8 23.0431V8.86667C8 7.83574 8.83574 7 9.86667 7H10.5076C11.2019 7 11.8389 7.38537 12.1611 8.0004L14.2526 11.9926L16.1037 15.5652C16.1143 15.5855 16.1352 15.5983 16.1581 15.5983C16.1811 15.5983 16.2022 15.5854 16.2127 15.5649L18.039 11.9926L20.1072 8.00689C20.4282 7.38827 21.0671 7 21.7641 7H22.4C23.4309 7 24.2667 7.83574 24.2667 8.86667V23.0431C24.2667 23.9029 23.5696 24.6 22.7097 24.6C21.8499 24.6 21.1528 23.9029 21.1528 23.0431V12.1396C21.1528 12.1141 21.1321 12.0934 21.1066 12.0934C21.0891 12.0934 21.0731 12.1033 21.0653 12.1189L19.7329 14.7662L17.5343 18.8181C16.9273 19.9367 15.3207 19.9333 14.7185 18.8122L12.5587 14.7914L11.2011 11.9932C11.1934 11.9774 11.1774 11.9673 11.1598 11.9673C11.1344 11.9673 11.1138 11.9879 11.1138 12.0133V23.0431C11.1138 23.9029 10.4168 24.6 9.55692 24.6Z" fill="#003A43"/>
<path d="M38.2347 25V8.248H41.7387L44.2587 13L46.0587 16.432H46.1307L47.9067 13L50.4027 8.248H53.9067V25H50.9067V15.736V13.096H50.8347L49.5387 15.64L46.0587 21.976L42.6267 15.664L41.3067 12.976H41.2347V15.736V25H38.2347ZM62.1239 25.288C60.8918 25.288 59.8358 25.024 58.9559 24.496C58.0758 23.952 57.3958 23.192 56.9158 22.216C56.4518 21.224 56.2198 20.056 56.2198 18.712C56.2198 17.4 56.4518 16.256 56.9158 15.28C57.3798 14.288 58.0438 13.528 58.9078 13C59.7718 12.456 60.8119 12.184 62.0279 12.184C63.3398 12.184 64.4118 12.472 65.2439 13.048C66.0919 13.624 66.7159 14.392 67.1159 15.352C67.5319 16.296 67.7399 17.344 67.7399 18.496V19.504H59.4118V19.816C59.4118 20.712 59.6678 21.44 60.1798 22C60.6919 22.56 61.4519 22.84 62.4599 22.84C63.2119 22.84 63.8359 22.68 64.3318 22.36C64.8279 22.024 65.2679 21.616 65.6518 21.136L67.3079 22.984C66.7959 23.672 66.0919 24.232 65.1959 24.664C64.3159 25.08 63.2919 25.288 62.1239 25.288ZM62.0759 14.488C61.5319 14.488 61.0598 14.616 60.6598 14.872C60.2599 15.112 59.9478 15.456 59.7238 15.904C59.5158 16.336 59.4118 16.84 59.4118 17.416V17.608H64.5478V17.392C64.5478 16.8 64.4518 16.296 64.2599 15.88C64.0679 15.448 63.7879 15.112 63.4199 14.872C63.0519 14.616 62.6039 14.488 62.0759 14.488ZM77.6187 25V22.912H77.4987C77.2747 23.632 76.8507 24.208 76.2267 24.64C75.6027 25.072 74.8747 25.288 74.0427 25.288C73.0027 25.288 72.1147 25.032 71.3787 24.52C70.6587 24.008 70.1067 23.264 69.7227 22.288C69.3387 21.296 69.1467 20.104 69.1467 18.712C69.1467 17.32 69.3387 16.144 69.7227 15.184C70.1067 14.208 70.6587 13.464 71.3787 12.952C72.1147 12.44 73.0027 12.184 74.0427 12.184C74.8747 12.184 75.6027 12.4 76.2267 12.832C76.8667 13.248 77.2907 13.816 77.4987 14.536H77.6187V7.24H80.6907V25H77.6187ZM75.0267 22.744C75.5227 22.744 75.9627 22.664 76.3467 22.504C76.7467 22.344 77.0587 22.112 77.2827 21.808C77.5067 21.504 77.6187 21.136 77.6187 20.704V16.72C77.6187 16.32 77.5067 15.968 77.2827 15.664C77.0587 15.36 76.7467 15.128 76.3467 14.968C75.9627 14.792 75.5227 14.704 75.0267 14.704C74.2427 14.704 73.6027 14.976 73.1067 15.52C72.6107 16.048 72.3627 16.76 72.3627 17.656V19.816C72.3627 20.696 72.6107 21.408 73.1067 21.952C73.6027 22.48 74.2427 22.744 75.0267 22.744ZM85.1693 10.648C84.5453 10.648 84.0893 10.504 83.8013 10.216C83.5133 9.912 83.3693 9.544 83.3693 9.112V8.632C83.3693 8.184 83.5133 7.816 83.8013 7.528C84.0893 7.24 84.5453 7.096 85.1693 7.096C85.7933 7.096 86.2493 7.24 86.5373 7.528C86.8253 7.816 86.9693 8.184 86.9693 8.632V9.112C86.9693 9.544 86.8253 9.912 86.5373 10.216C86.2493 10.504 85.7933 10.648 85.1693 10.648ZM83.6333 25V12.472H86.7053V25H83.6333ZM96.3387 25.288C94.8667 25.288 93.5867 24.968 92.4987 24.328C91.4267 23.688 90.5947 22.736 90.0027 21.472C89.4107 20.192 89.1147 18.616 89.1147 16.744C89.1147 14.856 89.4107 13.264 90.0027 11.968C90.5947 10.656 91.4267 9.664 92.4987 8.992C93.5867 8.304 94.8667 7.96 96.3387 7.96C97.8267 7.96 99.0667 8.28 100.059 8.92C101.067 9.56 101.867 10.528 102.459 11.824L99.7467 13.264C99.5067 12.512 99.1147 11.912 98.5707 11.464C98.0267 11 97.2827 10.768 96.3387 10.768C95.1547 10.768 94.2107 11.168 93.5067 11.968C92.8187 12.768 92.4747 13.888 92.4747 15.328V17.968C92.4747 19.392 92.8187 20.504 93.5067 21.304C94.2107 22.088 95.1547 22.48 96.3387 22.48C97.2827 22.48 98.0507 22.224 98.6427 21.712C99.2347 21.2 99.6747 20.568 99.9627 19.816L102.531 21.328C101.939 22.576 101.131 23.552 100.107 24.256C99.0827 24.944 97.8267 25.288 96.3387 25.288ZM109.169 25H107.513C106.473 25 105.697 24.736 105.185 24.208C104.689 23.68 104.441 22.936 104.441 21.976V7.24H107.513V22.552H109.169V25ZM115.864 25.288C114.68 25.288 113.648 25.024 112.768 24.496C111.904 23.952 111.232 23.192 110.752 22.216C110.288 21.224 110.056 20.056 110.056 18.712C110.056 17.368 110.288 16.216 110.752 15.256C111.232 14.28 111.904 13.528 112.768 13C113.648 12.456 114.68 12.184 115.864 12.184C117.064 12.184 118.096 12.456 118.96 13C119.84 13.528 120.512 14.28 120.976 15.256C121.456 16.216 121.696 17.368 121.696 18.712C121.696 20.056 121.456 21.224 120.976 22.216C120.512 23.192 119.84 23.952 118.96 24.496C118.096 25.024 117.064 25.288 115.864 25.288ZM115.864 22.816C116.68 22.816 117.32 22.568 117.784 22.072C118.248 21.56 118.48 20.832 118.48 19.888V17.56C118.48 16.616 118.248 15.896 117.784 15.4C117.32 14.904 116.68 14.656 115.864 14.656C115.08 14.656 114.448 14.904 113.968 15.4C113.504 15.896 113.272 16.616 113.272 17.56V19.888C113.272 20.832 113.504 21.56 113.968 22.072C114.448 22.568 115.08 22.816 115.864 22.816ZM131.307 25V22.912H131.187C130.979 23.536 130.603 24.088 130.059 24.568C129.515 25.048 128.723 25.288 127.683 25.288C126.403 25.288 125.411 24.864 124.707 24.016C124.019 23.152 123.675 21.944 123.675 20.392V12.472H126.747V20.08C126.747 20.944 126.915 21.608 127.251 22.072C127.587 22.52 128.123 22.744 128.859 22.744C129.259 22.744 129.643 22.672 130.011 22.528C130.395 22.384 130.707 22.168 130.947 21.88C131.187 21.576 131.307 21.2 131.307 20.752V12.472H134.379V25H131.307ZM145.105 25V22.912H144.985C144.761 23.632 144.337 24.208 143.713 24.64C143.089 25.072 142.361 25.288 141.529 25.288C140.489 25.288 139.601 25.032 138.865 24.52C138.145 24.008 137.593 23.264 137.209 22.288C136.825 21.296 136.633 20.104 136.633 18.712C136.633 17.32 136.825 16.144 137.209 15.184C137.593 14.208 138.145 13.464 138.865 12.952C139.601 12.44 140.489 12.184 141.529 12.184C142.361 12.184 143.089 12.4 143.713 12.832C144.353 13.248 144.777 13.816 144.985 14.536H145.105V7.24H148.177V25H145.105ZM142.513 22.744C143.009 22.744 143.449 22.664 143.833 22.504C144.233 22.344 144.545 22.112 144.769 21.808C144.993 21.504 145.105 21.136 145.105 20.704V16.72C145.105 16.32 144.993 15.968 144.769 15.664C144.545 15.36 144.233 15.128 143.833 14.968C143.449 14.792 143.009 14.704 142.513 14.704C141.729 14.704 141.089 14.976 140.593 15.52C140.097 16.048 139.849 16.76 139.849 17.656V19.816C139.849 20.696 140.097 21.408 140.593 21.952C141.089 22.48 141.729 22.744 142.513 22.744Z" fill="#003A43"/>
</svg>
